<svg width="35" height="24" viewBox="0 0 35 24" fill="none" xmlns="http://www.w3.org/2000/svg">
<g clip-path="url(#clip0_52_1100)">
<path fill-rule="evenodd" clip-rule="evenodd" d="M10.1309 0.644315L11.6066 1.53792C11.8675 1.69594 11.9272 2.04856 11.7349 2.28536C9.58005 4.93892 7.62216 7.81629 7.62195 11.3825C10.5635 11.3825 13.5949 13.8058 13.5949 16.9084C13.5949 21.2423 10.1105 23.9414 6.62633 23.439C3.14214 22.9367 1.08078 20.4249 0.653573 17.4107C-0.326125 10.4985 3.48637 4.27393 9.09945 0.651692C9.41222 0.449855 9.8125 0.451497 10.1309 0.644315ZM31.0361 0.644315L32.5117 1.53792C32.7727 1.69594 32.8323 2.04856 32.64 2.28536C30.4852 4.93892 28.5273 7.81629 28.5271 11.3825C31.4687 11.3825 34.5 13.8058 34.5 16.9084C34.5 21.2423 31.0157 23.9414 27.5315 23.439C24.0473 22.9367 21.9859 20.4249 21.5587 17.4107C20.579 10.4985 24.3915 4.27393 30.0046 0.651692C30.3174 0.449855 30.7177 0.451497 31.0361 0.644315Z" fill="#0C8CE8"/>
</g>
<defs>
<clipPath id="clip0_52_1100">
<rect width="34" height="23" fill="white" transform="translate(0.5 0.5)"/>
</clipPath>
</defs>
</svg>
