<svg width="100" height="100" viewBox="0 0 100 100" fill="none" xmlns="http://www.w3.org/2000/svg">
<path d="M49.3688 78.25H51.8271C53.5771 78.25 55.225 77.4333 56.2834 76.0396L71.8771 55.525L87.4709 76.0396C88.5292 77.4312 90.1771 78.25 91.9271 78.25H94.3854L74.4917 52.0833L93.4938 27.0833H91.0354C89.2854 27.0833 87.6375 27.9 86.5792 29.2937L71.875 48.6396L57.1688 29.2916C56.1104 27.9 54.4625 27.0833 52.7125 27.0833H50.2542L69.2563 52.0833L49.3688 78.25Z" fill="white"/>
<path d="M50 54.1667V47.9167C50 34.0104 37.6145 22.9979 23.2729 25.3083C12.1083 27.1063 4.16663 37.2021 4.16663 48.5083V50V54.1667V54.4625C4.16663 68.1146 14.1187 79.0167 26.8083 79.1667C37.4166 79.2917 46.3687 72.2 49.1145 62.5021H46.9729C45.6812 62.5021 44.5104 63.2417 43.95 64.4042C40.327 71.8938 31.8895 76.6167 22.6416 74.4917C14.1166 72.5313 8.33329 64.5438 8.33329 55.7979V54.1667H50ZM8.33329 49.3958C8.33329 39.5875 14.175 31.5688 22.7583 29.65C34.9958 26.9167 45.8333 36.15 45.8333 47.9167V50H8.33329V49.3958Z" fill="white"/>
</svg>
