<svg width="100" height="100" viewBox="0 0 100 100" fill="none" xmlns="http://www.w3.org/2000/svg">
<path d="M2.08325 10.4167L14.5833 18.75V60.4167L2.08325 52.0834V10.4167Z" fill="#29B6F6"/>
<path d="M97.9167 41.6667L85.4167 50V77.0834L97.9167 68.75V41.6667Z" fill="#0288D1"/>
<path d="M97.9167 12.5L85.4167 20.8333V35.4167L97.9167 27.0833V12.5Z" fill="#0288D1"/>
<path d="M72.9167 10.4167L60.4167 18.75V60.4167L72.9167 52.0834V10.4167Z" fill="#0288D1"/>
<path d="M2.08325 25L37.4999 47.9167V33.3334L2.08325 10.4167V25Z" fill="#29B6F6"/>
<path d="M72.9167 25L37.5 47.9167V33.3334L72.9167 10.4167V25Z" fill="#0288D1"/>
<path d="M72.9167 54.1666L37.5 77.0833V62.5L72.9167 39.5833V54.1666Z" fill="#0288D1"/>
<path d="M97.9167 70.8333L62.5 93.75V79.1667L97.9167 56.25V70.8333Z" fill="#0288D1"/>
<path d="M62.5 78.6771L37.5 62.5V77.0833L62.5 93.2604V78.6771Z" fill="#29B6F6"/>
</svg>
