<svg width="100" height="100" viewBox="0 0 100 100" fill="none" xmlns="http://www.w3.org/2000/svg">
<path d="M0.00416667 73.0021H4.00417V58.2417L9.56042 70.8604C10.2458 72.4333 11.1833 72.9896 13.0229 72.9896C14.8625 72.9896 15.7625 72.4333 16.4479 70.8604L22.0042 58.5646V73.0021H26.0042V57.8812C26.0042 56.4292 25.4271 55.725 24.2354 55.3625C21.3875 54.4667 19.475 55.2396 18.6104 57.1792L12.9125 70.0125L7.39375 57.1792C6.56458 55.2417 4.61875 54.4667 1.76875 55.3625C0.577083 55.725 0 56.4271 0 57.8792V73L0.00416667 73.0021Z" fill="#00796B"/>
<path d="M28.0021 61.0021H32.0021V69.45C31.9708 69.8667 32.1354 70.9729 34.0646 71.0021C35.0479 71.0187 39.9417 71.0021 40.0021 71.0021V61.0021H44.0021C44.0187 61.0021 44.0021 73.4354 44.0021 73.4875C44.0229 76.5542 40.1937 76.95 38.4333 77.0021H28.0042V75.0021C28.025 75.0021 37.9771 75.0042 38.0062 75.0021C40.2729 74.7625 40.0042 73.5146 40.0042 73.1354V73.0021H33.7292C30.25 72.9708 28.0312 71.4375 28.0062 69.6896C28.0021 69.5271 28.0812 61.0771 28.0021 61.0021Z" fill="#00796B"/>
<path d="M46.0021 73.0021H56.0167C57.3292 73.0021 58.6042 72.7271 59.6167 72.2521C61.3042 71.4771 62 70.4292 62 69.0521V66.2021C62 63.1271 58.1875 63.0021 56 63.0021H52C50.4271 63.0021 50.1875 62.0521 50 61.0021V59.0021C50.1875 58.2021 50.5375 57.1271 51.9229 57.0021C53.5334 57.0021 61.9979 57.0021 61.9979 57.0021V55.0021H52.4854C50.9125 55.0021 45.9979 55.1896 45.9979 59.0021V61.475C45.9979 63.225 47.5354 64.65 50.8729 65C51.2479 65.025 51.6229 65.05 51.9959 65.05C51.9959 65.05 55.8834 64.975 55.9959 65C58.2459 65 57.9958 66.75 57.9958 67V69C57.9958 69.275 57.9334 71 55.9729 71C55.8229 71 45.9958 71 45.9958 71V73.0021H46.0021Z" fill="#F57F17"/>
<path d="M84 68.9167C84 71.3313 85.3646 72.6854 88.9833 72.9563C89.3208 72.9792 89.6604 73 90 73H100V71H90.7604C88.6958 71 88 70.1333 88 68.8938V55H84V68.9167Z" fill="#F57F17"/>
<path d="M63.9667 69.0021V59.0021C63.9667 56.8771 65.0083 55.4104 67.9583 55.0021H69.3583H76.5396H77.6333C80.5833 55.4104 81.9667 56.875 81.9667 59.0021V68.9646C81.9667 70.6875 81.5188 71.6125 80.0583 72.2125L83.1583 75H78.6583L76.4292 73H73.8104L69.3604 73.025C68.7167 73.025 68.0375 72.9354 67.2917 72.7312C65.0542 72.1208 63.9667 70.9458 63.9667 69.0021ZM67.9667 69.0021C68.1708 69.975 68.9521 71.0021 70.3417 71.0021H74.225L72 69.0021H76.5313L77.6125 70.0062C77.6125 70.0062 78 69.6896 78 69.0021C78 68.3146 77.9667 59.0021 77.9667 59.0021C77.7625 58.0979 76.8458 57.0021 75.4917 57.0021H70.3438C68.7833 57.0021 67.9688 58.1437 67.9688 59.2062L67.9667 69.0021Z" fill="#F57F17"/>
<path d="M96.248 52.8937C94.1001 52.8354 92.4605 53.0354 91.0584 53.625C90.6605 53.7937 90.0251 53.7979 89.9584 54.2979C90.1771 54.5271 90.2105 54.8708 90.3855 55.1521C90.7188 55.6937 91.2855 56.4208 91.7896 56.8C92.3417 57.2166 92.9105 57.6625 93.5001 58.0229C94.5501 58.6625 95.723 59.0291 96.7355 59.6708C97.3313 60.0479 97.923 60.5271 98.5063 60.9521C98.7938 61.1646 98.9855 61.4916 99.3605 61.625C99.3605 61.6041 99.3605 61.5854 99.3605 61.5646C99.1646 61.3146 99.1125 60.9708 98.9334 60.7083C98.6688 60.4437 98.4042 60.1791 98.1396 59.9146C97.3646 58.8854 96.3771 57.9791 95.3313 57.2291C94.4959 56.6291 92.6271 55.8187 92.2771 54.8479C92.2563 54.8271 92.2376 54.8083 92.2146 54.7854C92.8063 54.7187 93.5 54.5041 94.0459 54.3583C94.9646 54.1125 95.7834 54.1771 96.7313 53.9312C97.1584 53.8083 97.5855 53.6875 98.0126 53.5646C98.0126 53.4833 98.0126 53.4021 98.0126 53.3208C97.5334 52.8291 97.1896 52.1791 96.6688 51.7333C95.3001 50.5687 93.8084 49.4062 92.273 48.4354C91.4209 47.8979 90.3667 47.5479 89.4646 47.0916C89.1605 46.9375 88.6271 46.8583 88.4271 46.6041C87.9521 46 87.6959 45.2312 87.3292 44.5291C86.5625 43.0541 85.8084 41.4416 85.1313 39.8896C84.6667 38.8312 84.3646 37.7854 83.7875 36.8354C81.0146 32.2771 78.0292 29.525 73.4084 26.8208C72.4251 26.2458 71.2396 26.0187 69.9876 25.7208C69.3146 25.6812 68.6438 25.6396 67.9709 25.5979C67.5605 25.425 67.1355 24.925 66.748 24.6812C65.2167 23.7125 61.2876 21.6083 60.1542 24.375C59.4376 26.1208 61.225 27.825 61.8646 28.7104C62.3125 29.3312 62.8876 30.0271 63.2084 30.7271C63.4188 31.1854 63.4563 31.6458 63.6355 32.1312C64.0792 33.3271 64.7813 34.6896 65.3563 35.7958C65.6459 36.3562 65.9667 36.9437 66.3334 37.4437C66.5584 37.75 66.9438 37.8854 67.0063 38.3604C66.6292 38.8875 66.6084 39.7062 66.3959 40.3771C65.4417 43.3875 65.8021 47.1271 67.1896 49.3521C67.6146 50.0354 68.6188 51.5021 69.998 50.9396C71.2042 50.4479 70.9355 48.925 71.2792 47.5812C71.3563 47.2771 71.3084 47.0541 71.4625 46.85C71.4625 46.8708 71.4625 46.8896 71.4625 46.9125C71.8292 47.6437 72.1938 48.3791 72.5626 49.1104C73.3771 50.4208 74.8209 51.7896 76.0417 52.7146C76.675 53.1937 77.1751 54.0229 77.9959 54.3021C77.9959 54.2812 77.9959 54.2625 77.9959 54.2396C77.9751 54.2396 77.9563 54.2396 77.9334 54.2396C77.7751 53.9916 77.5251 53.8896 77.323 53.6896C76.8459 53.2208 76.3126 52.6396 75.9188 52.1021C74.8063 50.5916 73.823 48.9375 72.9271 47.2166C72.5001 46.3937 72.1271 45.4896 71.7667 44.6521C71.6271 44.3291 71.6292 43.8416 71.3396 43.675C70.9438 44.2875 70.3646 44.7833 70.0584 45.5062C69.5709 46.6625 69.5063 48.075 69.3271 49.5354C69.2188 49.5729 69.2667 49.5479 69.2042 49.5958C68.3542 49.3896 68.0542 48.5166 67.7376 47.7646C66.9376 45.8646 66.7896 42.8062 67.4938 40.6208C67.675 40.0541 68.498 38.2729 68.1667 37.75C68.0084 37.2271 67.4834 36.925 67.1917 36.5271C66.8271 36.0354 66.4667 35.3854 66.2146 34.8166C65.5605 33.3354 64.9396 31.6125 64.2501 30.1146C63.9209 29.3979 63.3646 28.675 62.9063 28.0396C62.4 27.3354 61.8313 26.8166 61.4396 25.9646C61.3 25.6625 61.1105 25.1771 61.3167 24.8646C61.3834 24.6541 61.4751 24.5666 61.6834 24.4979C62.0376 24.2229 63.023 24.5875 63.3938 24.7416C64.373 25.1479 65.1896 25.5354 66.0188 26.0854C66.4167 26.35 66.8188 26.8604 67.3001 27.0021C67.4834 27.0021 67.6667 27.0021 67.8501 27.0021C68.7105 27.2 69.673 27.0646 70.475 27.3083C71.8959 27.7396 73.1667 28.4104 74.3209 29.1396C77.8417 31.3625 80.7188 34.525 82.6875 38.3C83.0042 38.9083 83.1417 39.4875 83.4188 40.1312C83.9813 41.4312 84.6917 42.7687 85.25 44.0396C85.8084 45.3083 86.3542 46.5875 87.1438 47.6437C87.5605 48.1979 89.1646 48.4958 89.8917 48.8041C90.4021 49.0208 91.2396 49.2437 91.723 49.5354C92.648 50.0937 93.5438 50.7583 94.4084 51.3666C94.8501 51.6729 96.1813 52.3416 96.248 52.8937Z" fill="#00796B"/>
<path d="M68.9541 29.6313C68.5062 29.6229 68.1895 29.6792 67.8541 29.7542C67.8541 29.775 67.8541 29.7938 67.8541 29.8167C67.875 29.8167 67.8937 29.8167 67.9166 29.8167C68.1312 30.2542 68.5062 30.5396 68.7708 30.9167C68.975 31.3438 69.177 31.7708 69.3812 32.1979C69.402 32.1771 69.4208 32.1583 69.4416 32.1375C69.8187 31.8708 69.9937 31.4458 69.9916 30.7938C69.8395 30.6333 69.8166 30.4333 69.6854 30.2438C69.5104 29.9875 69.1729 29.8438 68.9541 29.6313Z" fill="#00796B"/>
</svg>
