<svg width="100" height="100" viewBox="0 0 100 100" fill="none" xmlns="http://www.w3.org/2000/svg">
<g clip-path="url(#clip0_69_1235)">
<path d="M50 20.0084C36.6667 20.0084 28.3333 26.6729 25 40.0021C30 33.3375 35.8333 30.8396 42.5 32.5042C46.3042 33.4542 49.0229 36.2146 52.0333 39.2688C56.9333 44.2417 62.6062 50 75 50C88.3333 50 96.6667 43.3354 100 30.0042C95 36.6688 89.1667 39.1688 82.5 37.5042C78.6979 36.5542 75.9792 33.7938 72.9688 30.7396C68.0667 25.7646 62.3917 20.0084 50 20.0084ZM25 50C11.6667 50 3.33333 56.6646 0 69.9959C5 63.3313 10.8333 60.8313 17.5 62.4979C21.3021 63.45 24.0208 66.2084 27.0312 69.2604C31.9333 74.2354 37.6083 79.9938 50 79.9938C63.3333 79.9938 71.6667 73.3292 75 59.9979C70 66.6625 64.1667 69.1625 57.5 67.4959C53.6958 66.5459 50.9771 63.7854 47.9667 60.7334C43.0667 55.7584 37.3937 50 25 50Z" fill="#00ACC1"/>
</g>
<defs>
<clipPath id="clip0_69_1235">
<rect width="100" height="100" fill="white"/>
</clipPath>
</defs>
</svg>
