<svg width="43" height="33" viewBox="0 0 43 33" fill="none" xmlns="http://www.w3.org/2000/svg">
<path opacity="0.15" fill-rule="evenodd" clip-rule="evenodd" d="M2 7.39825C2 6.29369 2.89543 5.39825 4 5.39825H38.8C39.9046 5.39825 40.8 6.29369 40.8 7.39825V28.3871C40.8 29.4917 39.9046 30.3871 38.8 30.3871H24.7108C28.9393 29.0311 32 25.0686 32 20.3916C32 14.5952 27.299 9.89625 21.5 9.89625C15.701 9.89625 11 14.5952 11 20.3916C11 25.0686 14.0607 29.0311 18.2892 30.3871H4C2.89543 30.3871 2 29.4917 2 28.3871V7.39825ZM21.5 25.3894C24.2614 25.3894 26.5 23.1518 26.5 20.3916C26.5 17.6314 24.2614 15.3938 21.5 15.3938C18.7386 15.3938 16.5 17.6314 16.5 20.3916C16.5 23.1518 18.7386 25.3894 21.5 25.3894Z" fill="#0C8CE8"/>
<path d="M2.54688 22.0655C2.54688 22.3199 2.34039 22.5263 2.08594 22.5263C1.83149 22.5263 1.625 22.3199 1.625 22.0655V19.6966C1.625 19.442 1.83145 19.2359 2.08594 19.2359C2.34043 19.2359 2.54688 19.442 2.54688 19.6966V22.0655Z" fill="#0C8CE8" stroke="#0C8CE8" stroke-width="0.25"/>
<path d="M39.2448 5.22371H36.8178V4.94734C36.8178 4.16461 36.1806 3.52738 35.3972 3.52738H35.1484V2.81999C35.1484 2.03695 34.5109 1.40002 33.7278 1.40002H30.9285C30.1454 1.40002 29.5079 2.03695 29.5079 2.81999V3.52738H29.2591C28.4758 3.52738 27.8386 4.1643 27.8386 4.94734V5.22371H19.4984V4.61363C19.4984 3.8309 18.8612 3.19366 18.0778 3.19366H16.948C16.1649 3.19366 15.5274 3.83059 15.5274 4.61363V5.22371H14.1566V3.77934C14.1566 2.99661 13.5194 2.35938 12.736 2.35938H6.59828C5.81519 2.35938 5.17768 2.99661 5.17768 3.77934V5.22371H3.75525C2.51166 5.22371 1.5 6.23523 1.5 7.47797V17.146C1.5 17.4696 1.76245 17.7316 2.08594 17.7316C2.40943 17.7316 2.67188 17.4696 2.67188 17.146V11.5838H5.87867C6.13654 12.5276 7.00172 13.2237 8.0265 13.2237C9.05159 13.2237 9.91646 12.5276 10.1743 11.5838H14.8277C12.1247 13.6148 10.3733 16.8458 10.3733 20.4782C10.3733 22.863 11.1283 25.0745 12.4116 26.8874H2.67188V24.6161C2.67188 24.2925 2.40943 24.0304 2.08594 24.0304C1.76245 24.0304 1.5 24.2925 1.5 24.6161V28.2796C1.5 29.5226 2.51166 30.5339 3.75525 30.5339H16.7491C18.1907 31.2172 19.8014 31.6 21.5 31.6C23.1993 31.6 24.8103 31.2169 26.2522 30.533C26.2568 30.5333 26.2611 30.5339 26.2657 30.5339H39.2448C40.4884 30.5339 41.5001 29.5226 41.5001 28.2796V7.47797C41.5001 6.23523 40.4884 5.22371 39.2448 5.22371ZM30.6797 2.81999C30.6797 2.68303 30.7914 2.57138 30.9288 2.57138H33.7278C33.8649 2.57138 33.9766 2.68272 33.9766 2.81999V3.52738H30.6801L30.6797 2.81999ZM29.0104 4.94734C29.0104 4.81038 29.1221 4.69873 29.2595 4.69873H35.3972C35.5342 4.69873 35.6459 4.81038 35.6459 4.94734V5.22371H29.0107L29.0104 4.94734ZM16.6993 4.61363C16.6993 4.47667 16.811 4.36502 16.948 4.36502H18.0778C18.2151 4.36502 18.3265 4.47667 18.3265 4.61363V5.22371H16.6993V4.61363ZM6.34956 3.77934C6.34956 3.64238 6.46125 3.53073 6.59828 3.53073H12.7363C12.8733 3.53073 12.985 3.64238 12.985 3.77934V5.22371H6.34956V3.77934ZM8.0265 12.0523C7.44514 12.0523 6.97181 11.5795 6.97181 10.9982C6.97181 10.417 7.44514 9.94391 8.0265 9.94391C8.60817 9.94391 9.08119 10.417 9.08119 10.9982C9.08119 11.5795 8.60817 12.0523 8.0265 12.0523ZM10.1743 10.4125C9.91646 9.46866 9.05159 8.77256 8.0265 8.77256C7.00141 8.77256 6.13654 9.46866 5.87867 10.4125H2.67188V7.47797C2.67188 6.881 3.15802 6.39507 3.75525 6.39507H39.2448C39.8421 6.39507 40.3282 6.881 40.3282 7.47797V10.4125H38.5844V8.28449C38.5844 7.96115 38.322 7.69882 37.9985 7.69882H32.5453C32.2218 7.69882 31.9594 7.96115 31.9594 8.28449V10.4125H26.2266C24.7627 9.72551 23.151 9.35671 21.5 9.35671C19.81 9.35671 18.2072 9.73587 16.7713 10.4125H10.1743ZM33.1312 10.4125V8.87017H37.4125V10.4125H33.1312ZM3.75525 29.3625C3.15802 29.3625 2.67188 28.8766 2.67188 28.2796V28.0588H13.3665C13.8099 28.534 14.2942 28.9705 14.8139 29.3625H3.75525ZM11.5452 20.4785C11.5452 14.9917 16.0111 10.5281 21.5 10.5281C24.347 10.5281 27.0637 11.7512 28.954 13.8838C29.1685 14.126 29.5387 14.1486 29.781 13.9339C30.0233 13.7194 30.0456 13.3494 29.8311 13.1071C29.3284 12.5401 28.773 12.0313 28.1761 11.5838H40.3282V26.8874H30.5885C31.4833 25.6233 32.1205 24.1652 32.4247 22.5897H33.9576C34.8219 22.5897 35.5253 21.8868 35.5253 21.0227V19.5637C35.5253 18.6995 34.8222 17.9967 33.9576 17.9967H32.3448C32.1318 17.0648 31.801 16.161 31.3569 15.316C31.2065 15.0296 30.8522 14.9191 30.5659 15.0699C30.2794 15.2202 30.1689 15.574 30.3193 15.8605C31.0621 17.2747 31.4549 18.8716 31.4549 20.4785C31.4549 25.9652 26.9892 30.4289 21.5 30.4289C16.0111 30.4289 11.5452 25.9649 11.5452 20.4785ZM32.5483 19.1678H33.9576C34.1758 19.1678 34.3535 19.3453 34.3535 19.5634V21.0227C34.3535 21.2408 34.1758 21.4184 33.9576 21.4184H32.5865C32.6127 21.1084 32.6268 20.7948 32.6268 20.4782C32.6268 20.0399 32.6002 19.6022 32.5483 19.1678ZM39.2448 29.3625H28.1861C28.7059 28.9705 29.1902 28.534 29.6336 28.0588H40.3282V28.2796C40.3282 28.8766 39.8421 29.3625 39.2448 29.3625Z" fill="#0C8CE8" stroke="#0C8CE8" stroke-width="0.25"/>
<path d="M13.7415 20.4785C13.7415 16.2022 17.2219 12.723 21.5001 12.723C25.7783 12.723 29.2587 16.2022 29.2587 20.4785C29.2587 24.7545 25.7783 28.2336 21.5001 28.2336C17.2219 28.2336 13.7415 24.7545 13.7415 20.4785ZM14.6633 20.4785C14.6633 24.2467 17.7302 27.3121 21.5001 27.3121C25.27 27.3121 28.3368 24.2467 28.3368 20.4785C28.3368 16.7103 25.27 13.6445 21.5001 13.6445C17.7302 13.6445 14.6633 16.7103 14.6633 20.4785Z" fill="#0C8CE8" stroke="#0C8CE8" stroke-width="0.25"/>
<path d="M16.1189 20.4785C16.1189 17.5126 18.533 15.0995 21.4999 15.0995C24.4671 15.0995 26.8812 17.5126 26.8812 20.4785C26.8812 23.4443 24.4671 25.8571 21.4999 25.8571C18.5327 25.8571 16.1189 23.4443 16.1189 20.4785ZM17.0408 20.4785C17.0408 22.9363 19.041 24.9356 21.4999 24.9356C23.9588 24.9356 25.9593 22.9363 25.9593 20.4785C25.9593 18.0204 23.9588 16.021 21.4999 16.021C19.041 16.021 17.0408 18.0204 17.0408 20.4785Z" fill="#0C8CE8" stroke="#0C8CE8" stroke-width="0.25"/>
</svg>
