<svg width="96" height="96" viewBox="0 0 96 96" fill="none" xmlns="http://www.w3.org/2000/svg">
<path d="M80.6 31.4C81.8 28 83 21.4 79.8 14C70.8 14 63.2 20.4 62 21.6C57.6 20.6 52.8 20.2 48 20.2C43 20.2 38.2 20.8 33.6 21.8C27.4 15.4 19.2 14 16 14C16 14 14.2 17.6 14.2 24C14.2 28 15.2 30.4 15.8 31.6C11 36.6 8 43.4 8 52.2C8 74.6 22.2 82.2 48 82.2C73.8 82.2 88 74.6 88 52.2C88 43 85.2 36.2 80.6 31.4Z" fill="#455A64"/>
<path d="M48 78C31.6 78 18 75.2 18 60C18 54.2 21.2 51 23.4 49C28.4 44.6 36.8 46.6 48 46.6C56.2 46.6 63.2 45.2 68.8 47C74.4 48.8 78 54 78 59.6C78 75.4 70 78 48 78Z" fill="#FFCCBC"/>
<path d="M49.9999 68C49.9999 69.2 49.1999 70 47.9999 70C46.7999 70 45.9999 69.2 45.9999 68C45.9999 66.8 46.7999 66 47.9999 66C49.1999 66 49.9999 66.8 49.9999 68ZM52.9999 73C53.3999 72.6 53.3999 72 52.9999 71.6C52.5999 71.2 51.9999 71.2 51.5999 71.6C49.7999 73.4 46.3999 73.4 44.5999 71.6C44.1999 71.2 43.5999 71.2 43.1999 71.6C42.7999 72 42.7999 72.6 43.1999 73C44.5999 74.4 46.1999 75 48.1999 75C50.1999 75 51.5999 74.2 52.9999 73Z" fill="#D84315"/>
<path d="M38 59C38 64 35.4 68 32 68C28.6 68 26 64 26 59C26 54 28.6 50 32 50C35.4 50 38 54 38 59ZM64 50C60.6 50 58 54 58 59C58 64 60.6 68 64 68C67.4 68 70 64 70 59C70 54 67.4 50 64 50Z" fill="white"/>
<path d="M68 60C68 63.4 66.2 66 64 66C61.8 66 60 63.4 60 60C60 59.6 60 59 60.2 58.6C60.4 59.4 61.2 60 62 60C63.2 60 64 59.2 64 58C64 56.8 63.2 56 62 56C61.6 56 61.2 56.2 60.8 56.4C61.6 55 62.6 54 64 54C66.2 54 68 56.6 68 60ZM32 54C30.6 54 29.6 55 28.8 56.4C29.2 56.2 29.6 56 30 56C31.2 56 32 56.8 32 58C32 59.2 31.2 60 30 60C29.2 60 28.4 59.4 28.2 58.6C28.2 59 28 59.6 28 60C28 63.4 29.8 66 32 66C34.2 66 36 63.4 36 60C36 56.6 34.2 54 32 54Z" fill="#6D4C41"/>
</svg>
