<svg width="100" height="100" viewBox="0 0 100 100" fill="none" xmlns="http://www.w3.org/2000/svg">
<path d="M41.875 33.75L42.0833 38.5417L38.75 44.7917L33.5417 55L32.5 63.5417L36.25 75.625L44.7917 80.4167H57.7083L69.7917 71.25L75.2083 56.875L62.7083 41.6667L59.1667 33.125L41.875 33.75Z" fill="#ECEFF1"/>
<path d="M71.4583 45.625C68.125 40.8333 65.4166 37.9166 63.9583 31.875C62.5 25.8333 64.375 27.5 63.125 22.2917C62.5 19.5833 61.4583 17.7083 60.4166 16.25C59.1666 14.7917 57.7083 13.9583 56.875 13.75C55 12.7083 50.625 11.0417 45.2083 13.9583C39.5833 16.875 40.2083 23.125 41.25 35.8333C41.25 36.6667 41.0416 37.7083 40.625 38.5416C39.7916 40.4166 38.3333 42.0833 37.0833 43.5416C35.625 45.625 34.1666 47.7083 33.125 50C30.625 54.7917 28.3333 60.8333 28.9583 63.125C30 62.9166 43.125 82.9166 43.125 83.3333C43.9583 83.125 47.5 83.125 50.625 83.125C55 82.9166 57.5 82.7083 61.0416 83.5416C61.0416 82.9166 60.8333 82.2916 60.8333 81.6666C60.8333 80.4166 61.0416 79.375 61.25 77.9167C61.4583 76.875 61.6666 75.8333 61.875 74.5833C59.7916 76.4583 56.0416 78.5416 52.5 79.1666C49.375 79.7916 44.1666 78.75 41.6666 75.625C41.875 75.625 42.2916 75.625 42.5 75.4167C43.125 75.2083 43.75 75 43.9583 74.5833C44.5833 73.5416 44.1666 72.5 43.75 71.875C43.3333 71.25 40.2083 68.9583 38.75 67.7083C37.2916 66.4583 36.4583 65.8333 35.625 65C35.625 65 34.375 63.75 33.9583 63.3333C33.5416 62.9167 33.3333 62.5 33.125 62.2916C32.7083 61.25 32.5 60 32.7083 58.3333C32.9166 56.0417 33.75 54.1667 34.7916 52.0833C35.2083 51.25 36.25 49.5833 36.25 49.5833C36.25 49.5833 32.7083 58.3333 34.5833 61.0416C34.5833 61.0416 34.7916 58.3333 35.625 55.625C36.25 53.75 37.2916 51.0416 38.5416 49.5833C39.7916 48.125 42.9166 42.7083 43.125 39.375C43.125 37.9166 43.3333 36.4583 43.3333 35.4166C42.5 34.5833 57.0833 32.5 57.9166 34.7917C58.125 35.625 61.0416 43.125 62.7083 47.0833C63.5416 48.9583 64.5833 50.625 65.2083 52.7083C65.8333 55 66.25 58.125 66.25 61.25C66.25 61.875 66.25 62.9167 66.0416 63.9583C66.4583 63.9583 74.5833 55.2083 65 47.9167C65 47.9167 70.8333 50.625 71.0416 56.0416C71.25 60.4166 69.375 63.9583 68.9583 64.5833C69.1666 64.5833 73.3333 66.4583 73.5416 66.4583C74.375 66.4583 76.0416 65.8333 76.0416 65.8333C76.25 65.2083 76.875 63.5417 76.875 62.9167C78.3333 58.125 74.7916 50.4166 71.4583 45.625Z" fill="#263238"/>
<path d="M45 23.5416C44.2817 23.5416 43.5928 23.9806 43.0849 24.762C42.577 25.5434 42.2916 26.6032 42.2916 27.7083C42.2916 28.8134 42.577 29.8732 43.0849 30.6546C43.5928 31.436 44.2817 31.875 45 31.875C45.7183 31.875 46.4071 31.436 46.915 30.6546C47.423 29.8732 47.7083 28.8134 47.7083 27.7083C47.7083 26.6032 47.423 25.5434 46.915 24.762C46.4071 23.9806 45.7183 23.5416 45 23.5416ZM54.375 22.7083C53.4357 22.7083 52.5348 23.2131 51.8706 24.1118C51.2064 25.0104 50.8333 26.2292 50.8333 27.5C50.8333 28.7708 51.2064 29.9896 51.8706 30.8882C52.5348 31.7868 53.4357 32.2916 54.375 32.2916C55.3143 32.2916 56.2151 31.7868 56.8793 30.8882C57.5435 29.9896 57.9166 28.7708 57.9166 27.5C57.9166 26.2292 57.5435 25.0104 56.8793 24.1118C56.2151 23.2131 55.3143 22.7083 54.375 22.7083Z" fill="#ECEFF1"/>
<path d="M43.6208 28.3588C43.662 28.6845 43.7402 29.0023 43.8509 29.294C43.9617 29.5858 44.1028 29.8457 44.2663 30.059C44.4297 30.2724 44.6123 30.4349 44.8036 30.5374C44.9949 30.6398 45.1911 30.6802 45.3811 30.6562C45.5711 30.6322 45.7512 30.5442 45.911 30.3974C46.0707 30.2506 46.2071 30.0477 46.3124 29.8004C46.4176 29.5531 46.4896 29.2662 46.5243 28.9561C46.559 28.646 46.5556 28.3187 46.5145 27.993C46.4733 27.6673 46.3951 27.3495 46.2844 27.0578C46.1736 26.7661 46.0325 26.5061 45.869 26.2928C45.7056 26.0794 45.523 25.9169 45.3317 25.8145C45.1404 25.712 44.9441 25.6716 44.7541 25.6956C44.5641 25.7197 44.3841 25.8076 44.2243 25.9544C44.0645 26.1013 43.9281 26.3041 43.8229 26.5514C43.7177 26.7987 43.6457 27.0856 43.611 27.3957C43.5763 27.7058 43.5796 28.0331 43.6208 28.3588Z" fill="#212121"/>
<path d="M54.1667 25.625C53.6142 25.625 53.0843 25.9103 52.6936 26.4183C52.3029 26.9262 52.0834 27.615 52.0834 28.3333C52.0834 29.0516 52.3029 29.7405 52.6936 30.2484C53.0843 30.7563 53.6142 31.0417 54.1667 31.0417C54.7192 31.0417 55.2491 30.7563 55.6398 30.2484C56.0305 29.7405 56.25 29.0516 56.25 28.3333C56.25 27.615 56.0305 26.9262 55.6398 26.4183C55.2491 25.9103 54.7192 25.625 54.1667 25.625Z" fill="#212121"/>
<path d="M81.875 74.1667C81.0416 73.75 79.5833 73.125 78.3333 71.25C77.7083 70.2084 77.9166 67.2917 76.875 66.0417C76.25 65.2084 75.4166 65.625 75.2083 65.625C73.3333 66.0417 68.9583 68.9584 66.0416 65.625C65.625 65.2084 65 64.5834 63.9583 64.5834C62.9166 64.5834 62.5 65 62.0833 65.8333C61.6666 66.6667 61.6666 67.2917 61.6666 69.375C61.6666 71.0417 61.6666 72.9167 61.4583 74.375C61.0416 77.9167 60.4166 80 60.4166 82.0834C60.4166 84.375 61.0416 85.8334 61.875 86.4584C62.5 87.0834 63.5416 87.5 65.8333 87.5C68.125 87.5 69.5833 86.6667 71.0416 85.2084C72.0833 84.1667 72.9166 83.75 75.8333 81.6667C78.125 80.2084 81.6666 78.3334 82.2916 77.7084C82.7083 77.2917 83.3333 77.0834 83.3333 75.8334C83.3333 74.7917 82.5 74.375 81.875 74.1667ZM40 74.7917C37.9166 71.4584 37.7083 70.8334 36.25 68.75C35 66.6667 32.2916 62.7083 30.625 62.7083C29.375 62.7083 28.75 63.3334 27.9166 64.1667C27.0833 65 26.25 66.875 24.7916 67.9167C23.5416 68.9583 20 68.75 19.1666 70C18.3333 71.25 20 73.125 20 76.25C20 77.5 18.9583 78.3334 18.75 79.1667C18.5416 80.2084 18.3333 80.8334 18.75 81.6667C19.5833 82.9167 20.625 83.3334 27.7083 84.7917C31.4583 85.625 35 87.7084 37.2916 87.9167C39.5833 88.125 43.5416 87.9167 43.5416 82.2917C43.75 78.9584 41.875 78.125 40 74.7917ZM43.9583 37.0834C42.7083 36.25 41.6666 35.4167 41.6666 34.1667C41.6666 32.9167 42.5 32.5 43.75 31.4584C43.9583 31.25 46.25 29.1667 48.5416 29.1667C50.8333 29.1667 53.5416 30.625 54.5833 31.0417C56.4583 31.4584 58.3333 31.875 58.125 33.3334C57.9166 35.4167 57.7083 35.8334 55.625 36.875C54.1666 37.2917 51.4583 39.5834 49.5833 39.5834C48.75 39.5834 47.5 39.5834 46.6666 39.375C46.0416 39.1667 45 38.125 43.9583 37.0834Z" fill="#FFC107"/>
<path d="M43.5416 35.4167C43.9583 35.8333 44.5833 36.25 45.2083 36.4583C45.6249 36.6667 46.2499 36.875 46.2499 36.875C47.0833 36.875 47.7083 36.875 48.1249 36.875C49.1666 36.875 50.6249 36.4583 52.0833 35.625C53.5416 35 53.7499 34.5833 54.7916 34.1667C55.8333 33.5417 56.8749 32.9167 56.4583 32.7083C56.0416 32.5 55.6249 32.7083 54.1666 33.5417C52.9166 34.375 51.8749 34.7917 50.6249 35.4167C49.9999 35.625 49.1666 36.0417 48.5416 36.0417C47.9166 36.0417 47.2916 36.0417 46.6666 36.0417C46.0416 36.0417 45.6249 35.8333 44.9999 35.625C44.5833 35.4167 44.3749 35.2083 44.1666 35.2083C43.7499 35 42.9166 34.1667 42.4999 33.9583C42.4999 33.9583 42.0833 33.9583 42.2916 34.1667C42.9166 34.7917 43.1249 35 43.5416 35.4167ZM49.7916 30.8333C49.9999 31.25 50.4166 31.25 50.6249 31.4583C50.8333 31.6667 51.0416 31.6667 51.0416 31.6667C51.2499 31.4583 51.0416 31.0417 50.8333 31.0417C50.8333 30.625 49.7916 30.625 49.7916 30.8333ZM46.4583 31.25C46.4583 31.4583 46.8749 31.6667 46.8749 31.4583C47.0833 31.25 47.2916 31.0417 47.4999 31.0417C47.9166 30.8333 47.7083 30.625 47.0833 30.625C46.6666 30.8333 46.6666 31.0417 46.4583 31.25Z" fill="#634703"/>
<path d="M66.6667 68.125C66.6667 68.3333 66.6667 68.5416 66.6667 68.75C67.0834 69.5833 68.125 69.7916 68.9584 69.7916C70.2084 69.7916 71.4584 68.9583 72.0834 68.125C72.0834 67.9166 72.2917 67.7083 72.5 67.5C72.9167 66.875 73.125 66.4583 73.3334 66.25C73.3334 66.25 73.125 66.0416 73.125 65.8333C72.9167 65.4166 72.2917 65 71.4584 64.7916C70.8334 64.5833 69.7917 64.375 69.375 64.375C67.5 64.1666 66.4584 64.7916 65.8334 65.4166C65.8334 65.4166 66.0417 65.4166 66.0417 65.625C66.4584 66.0416 66.6667 66.4583 66.6667 67.0833C66.875 67.5 66.6667 67.7083 66.6667 68.125Z" fill="#455A64"/>
</svg>
