<svg width="100" height="100" viewBox="0 0 100 100" fill="none" xmlns="http://www.w3.org/2000/svg">
<path d="M91.6667 23.1458V76.8541C91.6667 79.5 90.0209 81.8541 87.5417 82.7291L69.1667 91.3541L70.8334 68.75V31.25L69.1667 8.64581L87.5417 17.2708C90.0209 18.1458 91.6667 20.5 91.6667 23.1458Z" fill="#29B6F6"/>
<path d="M18.75 70.6167L70.8334 31.25V11.1521C70.8334 8.65624 67.7459 7.48957 66.0938 9.36041L9.7042 60.9146C7.82921 62.6437 7.93545 65.6375 9.92712 67.2312C9.92712 67.2312 12.6855 69.7979 13.6834 70.5104C15.2167 71.6042 17.2313 71.7292 18.75 70.6167Z" fill="#0277BD"/>
<path d="M18.75 29.3834L70.8334 68.75V88.8479C70.8334 91.3438 67.7459 92.5104 66.0938 90.6396L9.7042 39.0854C7.82921 37.3563 7.93545 34.3625 9.92712 32.7688C9.92712 32.7688 12.6855 30.2021 13.6834 29.4896C15.2167 28.3959 17.2313 28.2709 18.75 29.3834Z" fill="#0288D1"/>
</svg>
