<svg width="40" height="40" viewBox="0 0 40 40" fill="none" xmlns="http://www.w3.org/2000/svg">
<g clip-path="url(#clip0_84_1079)">
<path opacity="0.15" d="M1 11V11C10.7595 16.5769 22.7405 16.5769 32.5 11V11V19V19C22.7405 24.5769 10.7595 24.5769 1 19V19V11Z" fill="#0C8CE8"/>
<path opacity="0.15" d="M0 24L1.61133 25.151C10.9712 31.8365 23.6637 31.3636 32.5 24V24V32V32C23.6637 39.3636 10.9712 39.8366 1.61134 33.151L0 32V24Z" fill="#0C8CE8"/>
<path d="M16.8 0C12.3031 0 8.21252 0.8125 5.17502 2.175C3.65627 2.85625 2.38752 3.68125 1.47502 4.65C0.606269 5.57188 0.0500183 6.65312 1.83106e-05 7.825C-0.00310669 7.86562 -0.00310669 7.90938 1.83106e-05 7.95C1.83106e-05 7.96562 1.83106e-05 7.98438 1.83106e-05 8V15.85C-0.00623169 15.9 -0.00623169 15.95 1.83106e-05 16V23.85C-0.00623169 23.9 -0.00623169 23.95 1.83106e-05 24V31.2C1.83106e-05 32.4406 0.562518 33.5813 1.47502 34.55C2.38752 35.5188 3.65627 36.3438 5.17502 37.025C8.21252 38.3875 12.3031 39.2 16.8 39.2C18.5063 39.2 20.1469 39.125 21.725 38.875C22.025 38.8531 22.2875 38.6625 22.4031 38.3844C22.5188 38.1063 22.4688 37.7844 22.2719 37.5563C22.075 37.3281 21.7688 37.2281 21.475 37.3C20.0125 37.5313 18.4531 37.6 16.8 37.6C12.4969 37.6 8.58752 36.8125 5.82502 35.575C4.44377 34.9563 3.36252 34.2313 2.65002 33.475C1.93752 32.7188 1.60002 31.9594 1.60002 31.2V27.475C2.50314 28.3906 3.72189 29.1719 5.17502 29.825C8.21252 31.1875 12.3031 32 16.8 32C17.5188 32 18.1938 32.0125 18.9 31.925C19.3406 31.8688 19.6563 31.4656 19.6 31.025C19.5438 30.5844 19.1406 30.2688 18.7 30.325C18.125 30.3969 17.5188 30.4 16.8 30.4C12.4969 30.4 8.58752 29.6125 5.82502 28.375C4.44377 27.7563 3.36252 27.0313 2.65002 26.275C1.93752 25.5188 1.60002 24.7594 1.60002 24C1.60627 23.95 1.60627 23.9 1.60002 23.85V19.475C2.50314 20.3906 3.72189 21.1719 5.17502 21.825C8.21252 23.1875 12.3031 24 16.8 24C21.2969 24 25.3875 23.1875 28.425 21.825C29.8781 21.1719 31.0969 20.3906 32 19.475V20C31.9969 20.2875 32.1469 20.5563 32.3969 20.7031C32.6469 20.8469 32.9531 20.8469 33.2031 20.7031C33.4531 20.5563 33.6031 20.2875 33.6 20V8C33.6 7.975 33.6 7.95 33.6 7.925C33.6 7.9 33.6 7.875 33.6 7.85C33.6 7.84062 33.6 7.83438 33.6 7.825C33.5938 7.80938 33.5844 7.79062 33.575 7.775C33.5094 6.625 32.9813 5.55938 32.125 4.65C31.2125 3.68125 29.9438 2.85625 28.425 2.175C25.3875 0.8125 21.2969 0 16.8 0ZM16.8 1.6C21.1031 1.6 25.0125 2.3875 27.775 3.625C29.1563 4.24375 30.2375 4.96875 30.95 5.725C31.6625 6.48125 32 7.24062 32 8C32 8.75938 31.6625 9.51875 30.95 10.275C30.2375 11.0313 29.1563 11.7563 27.775 12.375C25.0125 13.6125 21.1031 14.4 16.8 14.4C12.4969 14.4 8.58752 13.6125 5.82502 12.375C4.44377 11.7563 3.36252 11.0313 2.65002 10.275C1.93752 9.51875 1.60002 8.75938 1.60002 8C1.60002 7.975 1.60002 7.95 1.60002 7.925C1.62189 7.19062 1.95939 6.45625 2.65002 5.725C3.36252 4.96875 4.44377 4.24375 5.82502 3.625C8.58752 2.3875 12.4969 1.6 16.8 1.6ZM1.60002 11.475C2.50314 12.3906 3.72189 13.1719 5.17502 13.825C8.21252 15.1875 12.3031 16 16.8 16C21.2969 16 25.3875 15.1875 28.425 13.825C29.8781 13.1719 31.0969 12.3906 32 11.475V16C32 16.7594 31.6625 17.5188 30.95 18.275C30.2375 19.0313 29.1563 19.7563 27.775 20.375C25.0125 21.6125 21.1031 22.4 16.8 22.4C12.4969 22.4 8.58752 21.6125 5.82502 20.375C4.44377 19.7563 3.36252 19.0313 2.65002 18.275C1.93752 17.5188 1.60002 16.7594 1.60002 16C1.60627 15.95 1.60627 15.9 1.60002 15.85V11.475ZM29.55 22.4L29.45 23.075L29.125 25.025C28.8563 25.1219 28.5969 25.2375 28.35 25.35L26.15 23.75L23.75 26.15L24.15 26.7L25.275 28.3C25.1531 28.5406 25.0563 28.7875 24.975 29.05L23.075 29.375L22.4 29.475V32.825L23.075 32.95L24.95 33.275C25.0469 33.5438 25.1406 33.8063 25.25 34.05L24.15 35.7L23.775 36.25L24.225 36.725L25.675 38.175L26.15 38.625L28.35 37.125C28.6156 37.2469 28.8688 37.3719 29.125 37.45L29.45 39.4L29.55 40.075H32.925L33.025 39.4L33.35 37.45C33.6281 37.35 33.8969 37.2406 34.15 37.125L36.35 38.625L38.25 36.725L38.725 36.225L38.325 35.675L37.125 34.1C37.2438 33.8406 37.375 33.5969 37.45 33.35L39.35 32.95L40 32.8V29.475L39.325 29.375L37.375 29.05C37.275 28.7719 37.1656 28.5031 37.05 28.25L38.55 26.05L38.075 25.6L36.725 24.225L36.225 23.75L35.675 24.15L34.1 25.35C33.8406 25.2313 33.5969 25.1 33.35 25.025L33.025 23.075L32.925 22.4H29.55ZM30.9 24H31.55L31.85 25.725L31.925 26.225L32.425 26.375C32.9844 26.5344 33.4563 26.6719 33.8 26.9L34.275 27.225L34.725 26.875L36.1 25.875L36.475 26.25L35.5 27.7L35.225 28.1L35.45 28.525C35.675 28.9719 35.8844 29.4813 36.025 29.975L36.175 30.475L36.675 30.55L38.4 30.85V31.5L36.725 31.85L36.25 31.95L36.1 32.425C35.9406 32.9844 35.8031 33.4563 35.575 33.8L35.25 34.275L35.6 34.725L36.625 36.1L36.15 36.575L34.7 35.575L34.3 35.325L33.875 35.525C33.4281 35.75 32.9188 35.9594 32.425 36.1L31.925 36.25L31.85 36.75L31.55 38.475H30.9L30.625 36.75L30.55 36.25L30.05 36.1C29.4906 35.9406 29.0188 35.8031 28.675 35.575L28.225 35.275L27.8 35.575L26.35 36.575L25.825 36.05L26.825 34.6L27.075 34.225L26.875 33.8C26.65 33.3531 26.4406 32.8438 26.3 32.35L26.15 31.85L25.65 31.775L24 31.5V30.825L25.65 30.55L26.225 30.45L26.3 29.875C26.3594 29.4625 26.5625 28.9938 26.825 28.6L27.125 28.15L26.825 27.7L25.85 26.325L26.325 25.85L27.775 26.9L28.175 27.175L28.6 26.95C29.0469 26.725 29.5563 26.5156 30.05 26.375L30.55 26.225L30.625 25.725L30.9 24ZM31.2 28C29.4313 28 28 29.4313 28 31.2C28 32.9688 29.4313 34.4 31.2 34.4C32.9688 34.4 34.4 32.9688 34.4 31.2C34.4 29.4313 32.9688 28 31.2 28ZM31.2 29.6C32.1531 29.6 32.8 30.2469 32.8 31.2C32.8 32.1531 32.1531 32.8 31.2 32.8C30.2469 32.8 29.6 32.1531 29.6 31.2C29.6 30.2469 30.2469 29.6 31.2 29.6Z" fill="#0C8CE8"/>
</g>
<defs>
<clipPath id="clip0_84_1079">
<rect width="40" height="40" fill="white"/>
</clipPath>
</defs>
</svg>
