<svg width="100" height="100" viewBox="0 0 100 100" fill="none" xmlns="http://www.w3.org/2000/svg">
<path d="M12.5 87.5V12.5H87.5V87.5H12.5Z" fill="#F7DF1E"/>
<path d="M61.5376 68.6396C62.9793 70.9812 64.5459 73.225 67.8647 73.225C70.6522 73.225 72.1147 71.8396 72.1147 69.9229C72.1147 67.6291 70.6022 66.8146 67.5355 65.4791L65.8543 64.7625C61.0022 62.7041 57.7751 60.125 57.7751 54.6771C57.7751 49.6562 61.6188 45.8354 67.6251 45.8354C71.9022 45.8354 74.9751 47.3166 77.1918 51.1958L71.9543 54.5437C70.8022 52.4854 69.5563 51.675 67.6251 51.675C65.6543 51.675 64.4063 52.9187 64.4063 54.5437C64.4063 56.5521 65.6563 57.3646 68.5418 58.6083L70.223 59.325C75.9418 61.7604 79.1668 64.2479 79.1668 69.8396C79.1668 75.8646 74.4084 79.1666 68.0209 79.1666C61.773 79.1666 58.2251 76.0312 56.2501 72.15L61.5376 68.6396ZM37.4001 68.8104C38.4543 70.6979 40.0563 72.15 42.3605 72.15C44.5647 72.15 45.8334 71.2791 45.8334 67.8937V45.8333H52.7772V68.9604C52.7772 75.975 48.7084 79.1666 42.7668 79.1666C37.398 79.1666 33.523 75.5291 31.9438 72.15L37.4001 68.8104Z" fill="#000001"/>
</svg>
