<svg width="100" height="100" viewBox="0 0 100 100" fill="none" xmlns="http://www.w3.org/2000/svg">
<path d="M87.5 36.0416C87.5 78.75 50 91.6666 50 91.6666C50 91.6666 12.5 78.75 12.5 36.0416C12.5 30.8333 12.9167 26.4583 13.3333 22.9166C13.9583 17.7083 17.5 13.5416 22.5 12.2916C28.9583 10.4166 39.1667 8.33331 50 8.33331C60.8333 8.33331 71.0417 10.4166 77.7083 12.2916C82.7083 13.5416 86.25 17.9166 86.875 22.9166C87.0833 26.4583 87.5 31.0416 87.5 36.0416Z" fill="#5D4037"/>
<path d="M50 14.5833C60.2083 14.5833 69.7917 16.6666 76.0417 18.3333C78.5417 18.9583 80.2083 21.0416 80.625 23.75C81.0417 27.7083 81.25 31.875 81.25 36.0416C81.25 68.5416 57.2917 81.6666 50 84.7916C42.7083 81.4583 18.75 68.3333 18.75 36.0416C18.75 31.875 18.9583 27.7083 19.375 23.75C19.5833 21.0416 21.4583 18.9583 23.9583 18.3333C30.2083 16.6666 39.7917 14.5833 50 14.5833ZM50 8.33331C39.1667 8.33331 28.9583 10.4166 22.2917 12.2916C17.5 13.5416 13.75 17.9166 13.3333 22.9166C12.9167 26.4583 12.5 31.0416 12.5 36.0416C12.5 78.75 50 91.6666 50 91.6666C50 91.6666 87.5 78.75 87.5 36.0416C87.5 30.8333 87.0833 26.4583 86.6667 22.9166C86.0417 17.7083 82.5 13.5416 77.5 12.2916C71.0417 10.4166 60.8333 8.33331 50 8.33331Z" fill="#4CAF50"/>
<path d="M47.9167 58.3333H52.0834V75H47.9167V58.3333Z" fill="#DCEDC8"/>
<path d="M50 20.8333C50 20.8333 37.5 31.25 37.5 47.9166C37.5 58.75 44.375 65.625 47.9167 68.75L50 62.5L52.0833 68.75C55.625 65.625 62.5 58.75 62.5 47.9166C62.5 31.25 50 20.8333 50 20.8333Z" fill="#4CAF50"/>
<path d="M50 20.8333C50 20.8333 37.5 31.25 37.5 47.9166C37.5 58.75 44.375 65.625 47.9167 68.75L50 62.5V20.8333Z" fill="#81C784"/>
</svg>
