<svg width="419" height="143" viewBox="0 0 419 143" fill="none" xmlns="http://www.w3.org/2000/svg">
<path d="M8.46726 114V28.1537H24.0185V64.4958H63.7979V28.1537H79.3911V114H63.7979V77.5321H24.0185V114H8.46726Z" fill="white"/>
<path d="M96.3046 114V28.1537H129.168C135.371 28.1537 140.527 29.1318 144.635 31.0879C148.771 33.0161 151.859 35.6569 153.899 39.0102C155.967 42.3636 157.001 46.1641 157.001 50.4117C157.001 53.9048 156.33 56.8949 154.989 59.382C153.647 61.8411 151.845 63.8391 149.581 65.3761C147.318 66.9131 144.789 68.0169 141.994 68.6876V69.5259C145.04 69.6936 147.961 70.6297 150.755 72.3344C153.577 74.011 155.883 76.3863 157.671 79.4603C159.46 82.5342 160.354 86.2508 160.354 90.6102C160.354 95.0534 159.278 99.0496 157.126 102.599C154.975 106.12 151.733 108.9 147.402 110.94C143.07 112.98 137.621 114 131.054 114H96.3046ZM111.856 101.006H128.581C134.226 101.006 138.292 99.9298 140.779 97.7781C143.294 95.5984 144.551 92.8039 144.551 89.3946C144.551 86.8517 143.923 84.5602 142.665 82.5202C141.407 80.4523 139.619 78.8315 137.3 77.6578C134.98 76.4562 132.214 75.8554 129 75.8554H111.856V101.006ZM111.856 64.6635H127.239C129.922 64.6635 132.339 64.1745 134.491 63.1964C136.643 62.1904 138.334 60.7792 139.563 58.9628C140.821 57.1184 141.449 54.9387 141.449 52.4237C141.449 49.0983 140.276 46.3597 137.928 44.2079C135.609 42.0562 132.158 40.9803 127.575 40.9803H111.856V64.6635Z" fill="#F85D0B"/>
<path d="M200.17 58.9102H190.836V31.3659H200.359C203.093 31.3659 205.442 31.9174 207.406 33.0202C209.379 34.1141 210.894 35.6877 211.952 37.7409C213.01 39.7942 213.539 42.251 213.539 45.1112C213.539 47.9804 213.005 50.4461 211.938 52.5083C210.88 54.5706 209.352 56.1531 207.352 57.2559C205.362 58.3588 202.968 58.9102 200.17 58.9102ZM195.826 54.593H199.928C201.847 54.593 203.447 54.2433 204.73 53.5439C206.012 52.8356 206.976 51.7821 207.621 50.3833C208.267 48.9756 208.59 47.2182 208.59 45.1112C208.59 43.0041 208.267 41.2557 207.621 39.8659C206.976 38.4672 206.021 37.4226 204.756 36.7322C203.501 36.0329 201.941 35.6832 200.076 35.6832H195.826V54.593ZM227.21 59.3137C225.139 59.3137 223.35 58.8833 221.844 58.0226C220.347 57.1528 219.194 55.9245 218.387 54.3374C217.58 52.7414 217.177 50.863 217.177 48.7022C217.177 46.5772 217.58 44.7122 218.387 43.1072C219.203 41.4933 220.342 40.238 221.804 39.3414C223.265 38.4358 224.982 37.983 226.955 37.983C228.228 37.983 229.429 38.1892 230.559 38.6017C231.698 39.0052 232.702 39.6328 233.572 40.4846C234.45 41.3364 235.141 42.4213 235.643 43.7393C236.145 45.0484 236.396 46.6085 236.396 48.4197V49.9126H219.463V46.631H231.729C231.72 45.6985 231.518 44.8691 231.124 44.1428C230.729 43.4076 230.178 42.8293 229.47 42.4079C228.77 41.9864 227.954 41.7757 227.022 41.7757C226.027 41.7757 225.152 42.0178 224.399 42.502C223.646 42.9772 223.059 43.6049 222.637 44.3849C222.225 45.156 222.014 46.0033 222.005 46.9268V49.7916C222.005 50.993 222.225 52.0241 222.664 52.8849C223.104 53.7367 223.718 54.3912 224.507 54.8485C225.296 55.2968 226.219 55.521 227.277 55.521C227.986 55.521 228.627 55.4224 229.201 55.2251C229.775 55.0189 230.272 54.7185 230.694 54.324C231.115 53.9295 231.433 53.4408 231.648 52.858L236.194 53.3691C235.907 54.5706 235.36 55.6196 234.554 56.5162C233.756 57.4039 232.733 58.0943 231.487 58.5874C230.241 59.0716 228.815 59.3137 227.21 59.3137ZM258.376 38.252L251.019 58.9102H245.639L238.282 38.252H243.474L248.221 53.5977H248.437L253.198 38.252H258.376ZM270.188 59.3137C268.116 59.3137 266.328 58.8833 264.821 58.0226C263.324 57.1528 262.172 55.9245 261.365 54.3374C260.558 52.7414 260.154 50.863 260.154 48.7022C260.154 46.5772 260.558 44.7122 261.365 43.1072C262.181 41.4933 263.319 40.238 264.781 39.3414C266.242 38.4358 267.959 37.983 269.932 37.983C271.205 37.983 272.407 38.1892 273.536 38.6017C274.675 39.0052 275.679 39.6328 276.549 40.4846C277.428 41.3364 278.118 42.4213 278.62 43.7393C279.122 45.0484 279.373 46.6085 279.373 48.4197V49.9126H262.441V46.631H274.707C274.698 45.6985 274.496 44.8691 274.101 44.1428C273.707 43.4076 273.155 42.8293 272.447 42.4079C271.748 41.9864 270.932 41.7757 269.999 41.7757C269.004 41.7757 268.13 42.0178 267.377 42.502C266.623 42.9772 266.036 43.6049 265.615 44.3849C265.202 45.156 264.992 46.0033 264.983 46.9268V49.7916C264.983 50.993 265.202 52.0241 265.642 52.8849C266.081 53.7367 266.695 54.3912 267.484 54.8485C268.273 55.2968 269.197 55.521 270.255 55.521C270.963 55.521 271.604 55.4224 272.178 55.2251C272.752 55.0189 273.25 54.7185 273.671 54.324C274.092 53.9295 274.411 53.4408 274.626 52.858L279.172 53.3691C278.885 54.5706 278.338 55.6196 277.531 56.5162C276.733 57.4039 275.711 58.0943 274.464 58.5874C273.218 59.0716 271.793 59.3137 270.188 59.3137ZM288.361 31.3659V58.9102H283.492V31.3659H288.361ZM302.379 59.3137C300.361 59.3137 298.613 58.8699 297.133 57.9822C295.654 57.0946 294.506 55.8527 293.69 54.2567C292.883 52.6608 292.48 50.7958 292.48 48.6618C292.48 46.5278 292.883 44.6584 293.69 43.0534C294.506 41.4485 295.654 40.2022 297.133 39.3145C298.613 38.4269 300.361 37.983 302.379 37.983C304.396 37.983 306.144 38.4269 307.624 39.3145C309.103 40.2022 310.246 41.4485 311.053 43.0534C311.869 44.6584 312.277 46.5278 312.277 48.6618C312.277 50.7958 311.869 52.6608 311.053 54.2567C310.246 55.8527 309.103 57.0946 307.624 57.9822C306.144 58.8699 304.396 59.3137 302.379 59.3137ZM302.405 55.4134C303.499 55.4134 304.414 55.113 305.149 54.5123C305.884 53.9026 306.431 53.0866 306.79 52.0645C307.158 51.0423 307.341 49.9036 307.341 48.6484C307.341 47.3841 307.158 46.2409 306.79 45.2188C306.431 44.1877 305.884 43.3672 305.149 42.7575C304.414 42.1478 303.499 41.843 302.405 41.843C301.285 41.843 300.352 42.1478 299.608 42.7575C298.873 43.3672 298.321 44.1877 297.954 45.2188C297.595 46.2409 297.416 47.3841 297.416 48.6484C297.416 49.9036 297.595 51.0423 297.954 52.0645C298.321 53.0866 298.873 53.9026 299.608 54.5123C300.352 55.113 301.285 55.4134 302.405 55.4134ZM316.41 66.657V38.252H321.198V41.6681H321.48C321.731 41.166 322.085 40.6325 322.543 40.0677C323 39.4938 323.618 39.0052 324.399 38.6017C325.179 38.1892 326.174 37.983 327.384 37.983C328.98 37.983 330.419 38.391 331.702 39.2069C332.993 40.0139 334.015 41.2109 334.768 42.7979C335.53 44.376 335.911 46.3127 335.911 48.608C335.911 50.8765 335.539 52.8042 334.795 54.3912C334.051 55.9783 333.038 57.1887 331.755 58.0226C330.473 58.8564 329.021 59.2733 327.398 59.2733C326.214 59.2733 325.232 59.0761 324.452 58.6816C323.672 58.2871 323.045 57.8119 322.569 57.2559C322.103 56.6911 321.74 56.1576 321.48 55.6555H321.278V66.657H316.41ZM321.184 48.5811C321.184 49.9171 321.372 51.0872 321.749 52.0914C322.135 53.0956 322.686 53.8802 323.403 54.445C324.13 55.0009 325.008 55.2789 326.039 55.2789C327.115 55.2789 328.016 54.992 328.743 54.4181C329.469 53.8353 330.016 53.0418 330.384 52.0376C330.76 51.0244 330.948 49.8723 330.948 48.5811C330.948 47.2989 330.765 46.1602 330.397 45.165C330.029 44.1697 329.482 43.3897 328.756 42.8248C328.03 42.2599 327.124 41.9775 326.039 41.9775C324.999 41.9775 324.116 42.251 323.39 42.7979C322.664 43.3448 322.112 44.1114 321.736 45.0977C321.368 46.084 321.184 47.2451 321.184 48.5811ZM349.226 59.3137C347.155 59.3137 345.366 58.8833 343.86 58.0226C342.362 57.1528 341.21 55.9245 340.403 54.3374C339.596 52.7414 339.193 50.863 339.193 48.7022C339.193 46.5772 339.596 44.7122 340.403 43.1072C341.219 41.4933 342.358 40.238 343.819 39.3414C345.281 38.4358 346.998 37.983 348.971 37.983C350.244 37.983 351.445 38.1892 352.575 38.6017C353.714 39.0052 354.718 39.6328 355.588 40.4846C356.466 41.3364 357.157 42.4213 357.659 43.7393C358.161 45.0484 358.412 46.6085 358.412 48.4197V49.9126H341.479V46.631H353.745C353.736 45.6985 353.534 44.8691 353.14 44.1428C352.745 43.4076 352.194 42.8293 351.486 42.4079C350.786 41.9864 349.97 41.7757 349.038 41.7757C348.043 41.7757 347.168 42.0178 346.415 42.502C345.662 42.9772 345.075 43.6049 344.653 44.3849C344.241 45.156 344.03 46.0033 344.021 46.9268V49.7916C344.021 50.993 344.241 52.0241 344.68 52.8849C345.12 53.7367 345.734 54.3912 346.523 54.8485C347.312 55.2968 348.235 55.521 349.293 55.521C350.002 55.521 350.643 55.4224 351.217 55.2251C351.79 55.0189 352.288 54.7185 352.709 54.324C353.131 53.9295 353.449 53.4408 353.664 52.858L358.21 53.3691C357.923 54.5706 357.376 55.6196 356.569 56.5162C355.771 57.4039 354.749 58.0943 353.503 58.5874C352.257 59.0716 350.831 59.3137 349.226 59.3137ZM362.531 58.9102V38.252H367.252V41.695H367.467C367.843 40.5025 368.489 39.5835 369.403 38.9379C370.327 38.2834 371.381 37.9561 372.564 37.9561C372.833 37.9561 373.133 37.9696 373.465 37.9965C373.806 38.0144 374.088 38.0458 374.312 38.0906V42.5693C374.106 42.4975 373.779 42.4348 373.331 42.381C372.891 42.3182 372.465 42.2868 372.053 42.2868C371.165 42.2868 370.367 42.4796 369.659 42.8651C368.96 43.2417 368.408 43.7662 368.005 44.4387C367.601 45.1112 367.399 45.8868 367.399 46.7655V58.9102H362.531Z" fill="white"/>
<path d="M395.626 56.1375C393.732 56.1375 392.129 55.5567 390.816 54.3953C389.503 53.2086 388.847 51.5927 388.847 49.5475C388.847 47.4771 390.122 45.3688 392.672 43.2226C391.132 40.7987 390.362 38.7662 390.362 37.125C390.362 34.9284 391.169 33.1231 392.785 31.7091C394.427 30.2699 396.245 29.5503 398.239 29.5503C399.603 29.5503 400.815 29.9543 401.875 30.7623C402.961 31.5703 403.504 32.757 403.504 34.3224C403.504 36.5948 402.43 38.6021 400.284 40.3443C399.35 41.127 398.088 42.0233 396.497 43.0333C398.062 45.1794 400.07 47.2751 402.519 49.3202C402.948 48.7648 403.541 47.9316 404.299 46.8206C405.082 45.6844 405.725 44.7881 406.23 44.1316C406.735 43.4499 407.329 42.7303 408.011 41.9728C409.399 40.4326 410.801 39.6625 412.214 39.6625C413.098 39.6625 413.843 40.0413 414.449 40.7987C415.08 41.531 415.396 42.3894 415.396 43.3741C415.396 44.8891 414.866 46.1768 413.805 47.2372C412.745 48.2977 411.76 48.8279 410.851 48.8279C410.397 48.8279 410.005 48.6764 409.677 48.3734C409.374 48.0704 409.222 47.6791 409.222 47.1993C409.222 46.7196 409.399 46.2904 409.753 45.9116C410.106 45.5329 410.447 45.3435 410.775 45.3435C411.104 45.3435 411.394 45.4319 411.646 45.6087C411.899 45.7854 412.164 45.8738 412.442 45.8738C412.719 45.8738 412.997 45.7097 413.275 45.3814C413.553 45.0279 413.692 44.624 413.692 44.1695C413.692 43.715 413.502 43.2858 413.123 42.8818C412.77 42.4525 412.24 42.2379 411.533 42.2379C410.851 42.2379 410.169 42.6167 409.488 43.3741C408.831 44.1063 407.973 45.3057 406.912 46.9721C405.852 48.6385 405.006 49.8757 404.375 50.6837C407.354 52.7289 409.715 53.7514 411.457 53.7514C412.113 53.7514 412.644 53.6126 413.048 53.3348C413.452 53.0318 413.793 52.7415 414.07 52.4637C414.348 52.186 414.613 52.0471 414.866 52.0471C415.118 52.0471 415.307 52.1229 415.434 52.2744C415.56 52.4259 415.623 52.6279 415.623 52.8803C415.623 53.1076 415.396 53.4737 414.941 53.9787C414.512 54.4837 413.805 54.976 412.82 55.4557C411.861 55.9102 410.788 56.1375 409.601 56.1375C407.581 56.1375 405.145 55.1275 402.292 53.1076C400.196 55.1275 397.974 56.1375 395.626 56.1375ZM400.663 35.7616C400.663 34.4486 400.31 33.4639 399.603 32.8075C398.896 32.151 398.05 31.8227 397.065 31.8227C396.08 31.8227 395.222 32.2015 394.49 32.959C393.783 33.7164 393.429 34.6254 393.429 35.6858C393.429 37.327 394.035 39.2081 395.247 41.329C396.459 40.5463 397.368 39.9403 397.974 39.511C398.58 39.0818 399.173 38.5137 399.754 37.8067C400.36 37.0998 400.663 36.4181 400.663 35.7616ZM391.952 48.4492C391.952 50.0398 392.432 51.3275 393.391 52.3122C394.376 53.297 395.487 53.7893 396.724 53.7893C397.987 53.7893 399.262 53.1076 400.549 51.7441C398.176 49.8 395.979 47.5402 393.959 44.9648C392.621 46.1263 391.952 47.2877 391.952 48.4492Z" fill="white"/>
<path d="M200.17 107.051H190.836V79.5068H200.359C203.093 79.5068 205.442 80.0582 207.406 81.161C209.379 82.2549 210.894 83.8285 211.952 85.8817C213.01 87.935 213.539 90.3918 213.539 93.252C213.539 96.1212 213.005 98.5869 211.938 100.649C210.88 102.711 209.352 104.294 207.352 105.397C205.362 106.5 202.968 107.051 200.17 107.051ZM195.826 102.734H199.928C201.847 102.734 203.447 102.384 204.73 101.685C206.012 100.976 206.976 99.9229 207.621 98.5241C208.267 97.1164 208.59 95.3591 208.59 93.252C208.59 91.1449 208.267 89.3965 207.621 88.0067C206.976 86.608 206.021 85.5634 204.756 84.873C203.501 84.1737 201.941 83.824 200.076 83.824H195.826V102.734ZM227.21 107.455C225.139 107.455 223.35 107.024 221.844 106.163C220.347 105.294 219.194 104.065 218.387 102.478C217.58 100.882 217.177 99.0038 217.177 96.843C217.177 94.718 217.58 92.853 218.387 91.248C219.203 89.6341 220.342 88.3788 221.804 87.4822C223.265 86.5766 224.982 86.1238 226.955 86.1238C228.228 86.1238 229.429 86.3301 230.559 86.7425C231.698 87.146 232.702 87.7736 233.572 88.6254C234.45 89.4772 235.141 90.5621 235.643 91.8802C236.145 93.1892 236.396 94.7494 236.396 96.5605V98.0534H219.463V94.7718H231.729C231.72 93.8393 231.518 93.0099 231.124 92.2836C230.729 91.5484 230.178 90.9701 229.47 90.5487C228.77 90.1273 227.954 89.9166 227.022 89.9166C226.027 89.9166 225.152 90.1586 224.399 90.6428C223.646 91.118 223.059 91.7457 222.637 92.5257C222.225 93.2968 222.014 94.1441 222.005 95.0677V97.9324C222.005 99.1338 222.225 100.165 222.664 101.026C223.104 101.878 223.718 102.532 224.507 102.989C225.296 103.438 226.219 103.662 227.277 103.662C227.986 103.662 228.627 103.563 229.201 103.366C229.775 103.16 230.272 102.859 230.694 102.465C231.115 102.07 231.433 101.582 231.648 100.999L236.194 101.51C235.907 102.711 235.36 103.76 234.554 104.657C233.756 105.545 232.733 106.235 231.487 106.728C230.241 107.212 228.815 107.455 227.21 107.455ZM256.842 91.8533L252.404 92.3374C252.279 91.8891 252.059 91.4677 251.745 91.0732C251.44 90.6787 251.028 90.3604 250.508 90.1183C249.988 89.8762 249.351 89.7552 248.598 89.7552C247.585 89.7552 246.733 89.9748 246.043 90.4142C245.361 90.8535 245.025 91.4229 245.034 92.1222C245.025 92.723 245.245 93.2116 245.693 93.5882C246.15 93.9648 246.903 94.2741 247.952 94.5162L251.476 95.2694C253.431 95.6908 254.883 96.3588 255.834 97.2733C256.793 98.1879 257.277 99.3849 257.286 100.864C257.277 102.164 256.896 103.312 256.143 104.307C255.399 105.294 254.363 106.065 253.036 106.621C251.709 107.177 250.185 107.455 248.464 107.455C245.935 107.455 243.9 106.925 242.358 105.867C240.815 104.801 239.896 103.317 239.6 101.416L244.348 100.958C244.563 101.891 245.02 102.595 245.72 103.07C246.419 103.545 247.329 103.783 248.45 103.783C249.607 103.783 250.535 103.545 251.234 103.07C251.942 102.595 252.297 102.008 252.297 101.308C252.297 100.716 252.068 100.228 251.611 99.8422C251.162 99.4566 250.463 99.1607 249.513 98.9545L245.989 98.2148C244.007 97.8024 242.541 97.1075 241.591 96.1302C240.64 95.1439 240.17 93.8976 240.179 92.3912C240.17 91.118 240.515 90.0152 241.214 89.0827C241.923 88.1412 242.904 87.415 244.16 86.9039C245.424 86.3839 246.881 86.1238 248.531 86.1238C250.952 86.1238 252.857 86.6394 254.247 87.6705C255.645 88.7016 256.511 90.0959 256.842 91.8533ZM261.301 107.051V86.3928H266.17V107.051H261.301ZM263.749 83.4609C262.978 83.4609 262.314 83.2053 261.758 82.6942C261.202 82.1742 260.924 81.5511 260.924 80.8248C260.924 80.0896 261.202 79.4664 261.758 78.9553C262.314 78.4353 262.978 78.1753 263.749 78.1753C264.529 78.1753 265.192 78.4353 265.739 78.9553C266.295 79.4664 266.573 80.0896 266.573 80.8248C266.573 81.5511 266.295 82.1742 265.739 82.6942C265.192 83.2053 264.529 83.4609 263.749 83.4609ZM280.16 115.228C278.412 115.228 276.91 114.991 275.655 114.515C274.399 114.049 273.391 113.422 272.629 112.633C271.867 111.843 271.337 110.969 271.042 110.01L275.426 108.947C275.623 109.351 275.91 109.75 276.287 110.144C276.663 110.548 277.17 110.88 277.807 111.14C278.452 111.409 279.264 111.543 280.241 111.543C281.622 111.543 282.765 111.207 283.671 110.534C284.576 109.871 285.029 108.777 285.029 107.253V103.339H284.787C284.536 103.841 284.168 104.357 283.684 104.886C283.209 105.415 282.577 105.859 281.788 106.217C281.008 106.576 280.026 106.755 278.842 106.755C277.255 106.755 275.816 106.383 274.525 105.639C273.243 104.886 272.221 103.765 271.459 102.277C270.705 100.779 270.329 98.9052 270.329 96.6547C270.329 94.3862 270.705 92.4719 271.459 90.9118C272.221 89.3427 273.247 88.1547 274.538 87.3477C275.83 86.5318 277.269 86.1238 278.856 86.1238C280.066 86.1238 281.061 86.3301 281.841 86.7425C282.63 87.146 283.258 87.6346 283.724 88.2085C284.191 88.7734 284.545 89.3068 284.787 89.809H285.056V86.3928H289.857V107.387C289.857 109.154 289.436 110.615 288.593 111.772C287.75 112.928 286.598 113.794 285.137 114.367C283.675 114.941 282.016 115.228 280.16 115.228ZM280.201 102.936C281.232 102.936 282.11 102.684 282.837 102.182C283.563 101.68 284.114 100.958 284.491 100.017C284.868 99.0756 285.056 97.9458 285.056 96.6278C285.056 95.3277 284.868 94.189 284.491 93.2116C284.123 92.2343 283.576 91.4767 282.85 90.9387C282.133 90.3918 281.25 90.1183 280.201 90.1183C279.116 90.1183 278.21 90.4007 277.484 90.9656C276.758 91.5305 276.211 92.3061 275.843 93.2923C275.475 94.2697 275.292 95.3815 275.292 96.6278C275.292 97.892 275.475 98.9993 275.843 99.9498C276.22 100.891 276.771 101.626 277.497 102.155C278.233 102.676 279.134 102.936 280.201 102.936ZM299.716 94.9466V107.051H294.847V86.3928H299.5V89.9031H299.743C300.218 88.7465 300.975 87.8274 302.015 87.146C303.065 86.4646 304.36 86.1238 305.902 86.1238C307.328 86.1238 308.57 86.4287 309.628 87.0384C310.695 87.6481 311.52 88.5313 312.102 89.6879C312.694 90.8446 312.986 92.2478 312.977 93.8976V107.051H308.108V94.6507C308.108 93.2699 307.749 92.1895 307.032 91.4094C306.324 90.6294 305.342 90.2393 304.087 90.2393C303.235 90.2393 302.477 90.4276 301.814 90.8042C301.159 91.1718 300.644 91.7053 300.267 92.4047C299.899 93.104 299.716 93.9514 299.716 94.9466ZM327.072 107.455C325 107.455 323.212 107.024 321.705 106.163C320.208 105.294 319.056 104.065 318.249 102.478C317.442 100.882 317.038 99.0038 317.038 96.843C317.038 94.718 317.442 92.853 318.249 91.248C319.065 89.6341 320.203 88.3788 321.665 87.4822C323.126 86.5766 324.843 86.1238 326.816 86.1238C328.089 86.1238 329.291 86.3301 330.42 86.7425C331.559 87.146 332.563 87.7736 333.433 88.6254C334.312 89.4772 335.002 90.5621 335.504 91.8802C336.006 93.1892 336.258 94.7494 336.258 96.5605V98.0534H319.325V94.7718H331.591C331.582 93.8393 331.38 93.0099 330.985 92.2836C330.591 91.5484 330.039 90.9701 329.331 90.5487C328.632 90.1273 327.816 89.9166 326.883 89.9166C325.888 89.9166 325.014 90.1586 324.261 90.6428C323.508 91.118 322.92 91.7457 322.499 92.5257C322.086 93.2968 321.876 94.1441 321.867 95.0677V97.9324C321.867 99.1338 322.086 100.165 322.526 101.026C322.965 101.878 323.579 102.532 324.368 102.989C325.157 103.438 326.081 103.662 327.139 103.662C327.847 103.662 328.488 103.563 329.062 103.366C329.636 103.16 330.134 102.859 330.555 102.465C330.976 102.07 331.295 101.582 331.51 100.999L336.056 101.51C335.769 102.711 335.222 103.76 334.415 104.657C333.617 105.545 332.595 106.235 331.349 106.728C330.102 107.212 328.677 107.455 327.072 107.455ZM340.376 107.051V86.3928H345.097V89.8359H345.312C345.689 88.6433 346.334 87.7243 347.249 87.0787C348.173 86.4242 349.226 86.0969 350.41 86.0969C350.679 86.0969 350.979 86.1104 351.311 86.1373C351.651 86.1552 351.934 86.1866 352.158 86.2314V90.7101C351.952 90.6383 351.625 90.5756 351.176 90.5218C350.737 90.459 350.311 90.4276 349.899 90.4276C349.011 90.4276 348.213 90.6204 347.505 91.0059C346.805 91.3825 346.254 91.9071 345.85 92.5795C345.447 93.252 345.245 94.0276 345.245 94.9063V107.051H340.376Z" fill="#F85D0B"/>
</svg>
