<svg width="100" height="100" viewBox="0 0 100 100" fill="none" xmlns="http://www.w3.org/2000/svg">
<g clip-path="url(#clip0_69_1205)">
<path d="M19.1222 37.5C17.9972 37.5 17.1574 38.1846 16.8761 39.1846L11.4379 59.375L15.2831 59.3445C16.3456 59.3445 17.2174 58.6592 17.4987 57.6904L21.5331 42.8467H24.6276C25.9401 42.8467 27.1586 43.7163 27.5023 45.1538C27.8773 46.8413 26.5651 48.6572 24.6276 48.6572H23.0285C21.9347 48.6572 21.0636 49.3738 20.7824 50.3113L19.7814 53.9978H24.7802C30.5927 53.9978 33.9047 48.4033 32.8734 43.8721C31.9984 40.0283 28.6583 37.5 24.9083 37.5H19.1222ZM96.0021 37.5C95.2208 37.5 94.5599 38.002 94.3724 38.7207L88.8121 59.375C92.0309 59.375 95.0316 57.2166 95.8129 53.9978L99.9694 38.7817C100.157 38.1255 99.6566 37.5 98.9379 37.5H96.0021ZM35.4735 43.75L34.9669 45.697C34.6107 47.1158 35.6197 48.4131 37.0665 48.4131H45.5443C46.135 48.4131 45.8959 49.0353 45.8678 49.1821L44.5983 53.8513C44.5389 54.0576 44.4524 54.6204 43.7743 54.6204H38.629C37.8322 54.6204 37.8322 53.4668 38.629 53.4668H41.8212C42.8243 53.4668 43.6239 52.7894 43.9208 51.8738L44.4213 49.9512H37.2741C31.4866 49.9512 30.8386 59.314 37.1886 59.314L45.6603 59.3445C47.3134 59.3445 48.7085 58.2795 49.121 56.7139L51.1901 49.1272C51.8994 46.3209 49.769 43.75 46.9909 43.75H35.4735ZM7.8246 43.7805C4.42772 43.7805 1.31874 45.8453 0.256239 49.8047C-1.04376 54.7672 2.74076 59.375 7.67201 59.375H9.50307L10.5651 55.5359C10.7432 54.8859 10.2378 54.3213 9.61903 54.3213H7.93446C4.30009 54.3213 4.27196 48.8281 7.93446 48.8281H10.6871C11.7215 48.8281 12.5143 48.1789 12.8112 47.2351L13.7267 43.7805H7.8246ZM61.8163 43.7805V43.8049H54.6996L50.83 58.1604C50.6518 58.8104 51.148 59.375 51.7699 59.375H54.547C55.2564 59.375 55.907 58.9338 56.0851 58.2275L58.6242 48.8647H61.5477C63.4071 48.8647 64.7425 50.5763 64.2394 52.2888L62.6708 58.136C62.4927 58.786 62.9387 59.375 63.6168 59.375H66.4489C67.127 59.375 67.7783 58.9308 67.9564 58.2214L69.2565 53.3752C70.5846 48.5034 66.9225 43.7805 61.8163 43.7805ZM77.9357 43.7866C75.3076 43.7866 72.9444 45.5575 72.235 48.1262L70.642 53.9734C69.9045 56.5734 71.882 59.3811 74.8351 59.3811H84.6679C85.671 59.3811 86.5018 58.6976 86.7675 57.782L87.622 54.7119H76.7821C76.2509 54.7119 75.8967 54.2072 76.0436 53.7354L77.2277 49.3347C77.3464 48.7722 77.7564 48.4497 78.3751 48.4497H83.2213C83.6057 48.4497 83.9009 48.8063 83.8134 49.2188L83.6913 49.6033C83.6007 49.897 83.4266 50.0183 83.1298 50.0183H79.9376C78.9033 50.0183 78.0816 50.6957 77.8441 51.6113L77.3131 53.5278H85.1989C86.7645 53.5278 88.2104 52.5527 88.6229 50.9277L89.099 49.1821C89.8365 46.3759 87.7395 43.7804 84.9364 43.7866H77.9357Z" fill="white"/>
</g>
<defs>
<clipPath id="clip0_69_1205">
<rect width="100" height="100" fill="white"/>
</clipPath>
</defs>
</svg>
